<svg width="356" height="352" viewBox="0 0 356 352" fill="none" xmlns="http://www.w3.org/2000/svg">
<path d="M238.896 344.16C224.514 323.48 216.085 298.36 216.085 271.273C216.085 200.623 273.428 143.35 344.163 143.35C347.086 143.35 349.988 143.448 352.862 143.64C350.967 133.689 348.241 124.031 344.762 114.742C344.562 114.742 344.363 114.742 344.163 114.742C257.608 114.741 187.442 184.823 187.442 271.273C187.442 300.804 195.629 328.426 209.862 351.996C219.855 350.192 229.558 347.556 238.896 344.16ZM261.984 333.843C248.712 316.484 240.83 294.796 240.83 271.269C240.83 214.275 287.088 168.073 344.152 168.073C348.093 168.073 351.982 168.294 355.808 168.722C355.935 171.483 356 174.26 356 177.053C356 183.947 355.607 190.751 354.842 197.44C351.351 196.941 347.782 196.682 344.152 196.682C302.908 196.682 269.473 230.076 269.473 271.269C269.473 289.082 275.725 305.438 286.158 318.263C278.559 324.078 270.478 329.295 261.984 333.843ZM304.747 301.878C311.857 294.676 318.356 286.872 324.161 278.549C323.332 276.278 322.879 273.824 322.879 271.267C322.879 260.879 330.341 252.232 340.202 250.381C344.354 241.235 347.752 231.675 350.319 221.782C348.3 221.533 346.243 221.405 344.156 221.405C316.586 221.405 294.235 243.729 294.235 271.267C294.235 282.805 298.159 293.428 304.747 301.878ZM146.159 352C160.393 328.428 168.582 300.806 168.582 271.273C168.582 184.823 98.4155 114.742 11.8603 114.742C11.6532 114.742 11.4462 114.742 11.2393 114.743C7.75821 124.032 5.03299 133.69 3.13834 143.642C6.0206 143.449 8.92898 143.35 11.8603 143.35C82.5959 143.35 139.939 200.623 139.939 271.273C139.939 298.362 131.508 323.486 117.124 344.167C126.463 347.562 136.166 350.197 146.159 352ZM94.0164 333.843C107.288 316.485 115.171 294.796 115.171 271.269C115.171 214.275 68.912 168.073 11.8489 168.073C7.90786 168.073 4.0183 168.294 0.191942 168.722C0.0644441 171.483 1.29273e-07 174.26 0 177.053C-3.05553e-07 183.947 0.392961 190.751 1.15772 197.441C4.64932 196.941 8.21888 196.682 11.8489 196.682C53.0926 196.682 86.5271 230.076 86.5271 271.269C86.5271 289.082 80.2749 305.438 69.8427 318.265C77.4413 324.078 85.5227 329.295 94.0164 333.843ZM51.2588 301.883C57.8498 293.433 61.7759 282.807 61.7759 271.267C61.7759 243.729 39.4251 221.405 11.854 221.405C9.76396 221.405 7.70386 221.534 5.68123 221.783C8.24807 231.675 11.6463 241.233 15.7969 250.378C25.6647 252.225 33.1322 260.874 33.1322 271.267C33.1322 273.828 32.6782 276.285 31.8463 278.559C37.6509 286.88 44.1496 294.684 51.2588 301.883ZM41.3853 63.0782C68.2656 110.682 119.369 142.827 177.988 142.827C236.616 142.827 287.723 110.675 314.601 63.0622C308.162 55.3727 301.084 48.2351 293.449 41.7308C272.77 84.6194 228.839 114.217 177.988 114.217C127.143 114.217 83.2177 84.6258 62.5352 41.7445C54.9009 48.2496 47.8237 55.388 41.3853 63.0782ZM82.896 26.746C98.6485 63.6328 135.29 89.4886 177.978 89.4886C220.674 89.4886 257.322 63.6223 273.068 26.7232C264.99 21.6164 256.472 17.1412 247.584 13.3671C236.733 41.1752 209.659 60.8798 177.978 60.8798C146.303 60.8798 119.233 41.183 108.378 13.3836C99.4901 17.1599 90.973 21.6371 82.896 26.746ZM131.822 5.31091C139.308 23.4124 157.156 36.1506 177.983 36.1506C198.813 36.1506 216.663 23.4084 224.147 5.30246C214.478 2.71752 204.485 0.925402 194.241 0C190.339 4.61251 184.503 7.54178 177.983 7.54178C171.464 7.54178 165.63 4.61381 161.726 0.00293422C151.483 0.930215 141.49 2.72421 131.822 5.31091Z" fill="black"/>
</svg>
